<?xml version="1.0" encoding="utf-8"?>
<!-- Generator: Adobe Illustrator 27.0.0, SVG Export Plug-In . SVG Version: 6.00 Build 0)  -->
<svg version="1.1" id="Layer_1" xmlns="http://www.w3.org/2000/svg" xmlns:xlink="http://www.w3.org/1999/xlink" x="0px" y="0px"
	 viewBox="0 0 24 24" style="enable-background:new 0 0 24 24;" xml:space="preserve">
<style type="text/css">
	.st0{fill-rule:evenodd;clip-rule:evenodd;fill:#C60F7B;}
	.st1{opacity:0.75;fill-rule:evenodd;clip-rule:evenodd;fill:#F90093;}
</style>
<path class="st0" d="M3.5,10.7c0-3.3,2.7-6,6-6c2.5,0,4.7,1.5,5.6,3.8c2.1-0.2,3.9,1.2,4.2,3.3c0,0.3,0,0.7,0,1
	c2.2,1.2,2.9,4,1.7,6.1c-0.8,1.4-2.3,2.3-3.9,2.3H5.8c-2.9,0-5.3-2.3-5.3-5.2c0-2,1.2-3.9,3-4.8C3.5,11.1,3.5,10.9,3.5,10.7z"/>
<path class="st1" d="M5.5,8.8c0-3.3,2.7-6,6-6c2.5,0,4.7,1.5,5.6,3.8c2.1-0.2,3.9,1.2,4.2,3.3c0,0.3,0,0.7,0,1
	c2.2,1.2,2.9,4,1.7,6.1c-0.8,1.4-2.3,2.3-3.9,2.3H7.7c-2.9,0-5.3-2.3-5.3-5.2c0-2,1.2-3.9,3-4.8C5.5,9.1,5.5,8.9,5.5,8.8z"/>
</svg>
