<?xml version="1.0" encoding="utf-8"?>
<!-- Generator: Adobe Illustrator 27.0.0, SVG Export Plug-In . SVG Version: 6.00 Build 0)  -->
<svg version="1.1" id="Layer_1" xmlns="http://www.w3.org/2000/svg" xmlns:xlink="http://www.w3.org/1999/xlink" x="0px" y="0px"
	 viewBox="0 0 32 32" style="enable-background:new 0 0 32 32;" xml:space="preserve">
<style type="text/css">
	.st0{fill:#C60F7B;}
	.st1{fill:#F90093;}
	.st2{fill:#EDD9E8;}
</style>
<g id="Cyber_Security">
	<path class="st0" d="M18,14h-4c-0.6,0-1-0.4-1-1v-2c0-1.7,1.3-3,3-3s3,1.3,3,3v2C19,13.6,18.6,14,18,14z M15,12h2v-1
		c0-0.6-0.4-1-1-1c-0.6,0-1,0.4-1,1V12z"/>
	<path class="st1" d="M13,12h6c1.7,0,3,1.3,3,3v6c0,1.7-1.3,3-3,3h-6c-1.7,0-3-1.3-3-3v-6C10,13.3,11.3,12,13,12z"/>
	<path class="st0" d="M18,17c0-1.1-0.9-2-2-2c-1.1,0-2,0.9-2,2c0,0.7,0.4,1.4,1,1.7V20c0,0.6,0.4,1,1,1c0.6,0,1-0.4,1-1v-1.3
		C17.6,18.4,18,17.7,18,17z"/>
	<path class="st2" d="M16,7c-0.6,0-1-0.4-1-1V4c0-0.6,0.4-1,1-1c0.6,0,1,0.4,1,1v2C17,6.6,16.6,7,16,7z"/>
	<path class="st2" d="M21,12c-0.3,0-0.5-0.1-0.7-0.3c-0.4-0.4-0.4-1,0-1.4c0,0,0,0,0,0L24,6.6V5c0-0.6,0.4-1,1-1s1,0.4,1,1v2
		c0,0.3-0.1,0.5-0.3,0.7l-4,4C21.5,11.9,21.3,12,21,12z"/>
	<path class="st2" d="M11,12c-0.3,0-0.5-0.1-0.7-0.3l-4-4C6.1,7.5,6,7.3,6,7V5c0-0.6,0.4-1,1-1s1,0.4,1,1v1.6l3.7,3.7
		c0.4,0.4,0.4,1,0,1.4c0,0,0,0,0,0C11.5,11.9,11.3,12,11,12z"/>
	<path class="st2" d="M25,28c-0.6,0-1-0.4-1-1v-1.6l-1.7-1.7c-0.4-0.4-0.4-1,0-1.4s1-0.4,1.4,0l2,2c0.2,0.2,0.3,0.4,0.3,0.7v2
		C26,27.6,25.6,28,25,28z"/>
	<path class="st2" d="M7,28c-0.6,0-1-0.4-1-1v-2c0-0.3,0.1-0.5,0.3-0.7l2-2c0.4-0.4,1-0.4,1.4,0s0.4,1,0,1.4L8,25.4V27
		C8,27.6,7.6,28,7,28z"/>
	<path class="st2" d="M16,29c-0.6,0-1-0.4-1-1v-2c0-0.6,0.4-1,1-1c0.6,0,1,0.4,1,1v2C17,28.6,16.6,29,16,29z"/>
	<path class="st2" d="M28,17h-4c-0.6,0-1-0.4-1-1c0-0.6,0.4-1,1-1h4c0.6,0,1,0.4,1,1C29,16.6,28.6,17,28,17z"/>
	<path class="st2" d="M8,17H4c-0.6,0-1-0.4-1-1c0-0.6,0.4-1,1-1h4c0.6,0,1,0.4,1,1C9,16.6,8.6,17,8,17z"/>
	<path class="st2" d="M25,6c-1.1,0-2-0.9-2-2c0-1.1,0.9-2,2-2c1.1,0,2,0.9,2,2c0,0.5-0.2,1-0.6,1.4C26,5.8,25.5,6,25,6z"/>
	<path class="st2" d="M7,6C5.9,6,5,5.1,5,4s0.9-2,2-2c1.1,0,2,0.9,2,2c0,0.5-0.2,1-0.6,1.4C8,5.8,7.5,6,7,6z"/>
	<path class="st2" d="M25,30c-1.1,0-2-0.9-2-2c0-1.1,0.9-2,2-2c1.1,0,2,0.9,2,2c0,0.5-0.2,1-0.6,1.4C26,29.8,25.5,30,25,30z"/>
	<path class="st2" d="M7,30c-1.1,0-2-0.9-2-2c0-1.1,0.9-2,2-2c1.1,0,2,0.9,2,2c0,0.5-0.2,1-0.6,1.4C8,29.8,7.5,30,7,30z"/>
	<circle class="st2" cx="29" cy="16" r="2"/>
	<circle class="st2" cx="3" cy="16" r="2"/>
	<path class="st2" d="M16,31c-1.1,0-2-0.9-2-2s0.9-2,2-2s2,0.9,2,2S17.1,31,16,31z"/>
	<path class="st2" d="M16,5c-1.1,0-2-0.9-2-2s0.9-2,2-2s2,0.9,2,2S17.1,5,16,5z"/>
</g>
</svg>
