<?xml version="1.0" encoding="utf-8"?>
<!-- Generator: Adobe Illustrator 27.0.0, SVG Export Plug-In . SVG Version: 6.00 Build 0)  -->
<svg version="1.1" id="Layer_1" xmlns="http://www.w3.org/2000/svg" xmlns:xlink="http://www.w3.org/1999/xlink" x="0px" y="0px"
	 viewBox="0 0 32 32" style="enable-background:new 0 0 32 32;" xml:space="preserve">
<style type="text/css">
	.st0{fill:#EDD9E8;}
	.st1{fill:#F90093;}
	.st2{fill:#C60F7B;}
</style>
<g id="Server">
	<path class="st0" d="M27,2H5C3.3,2,2,3.3,2,5v4c0,0.6,0.4,1,1,1h26c0.6,0,1-0.4,1-1V5C30,3.3,28.7,2,27,2z"/>
	<path class="st0" d="M3,12h26c0.6,0,1,0.4,1,1v6c0,0.6-0.4,1-1,1H3c-0.6,0-1-0.4-1-1v-6C2,12.4,2.4,12,3,12z"/>
	<path class="st0" d="M29,22H3c-0.6,0-1,0.4-1,1v4c0,1.7,1.3,3,3,3h22c1.7,0,3-1.3,3-3v-4C30,22.4,29.6,22,29,22z"/>
	<path class="st1" d="M21,17H7c-0.6,0-1-0.4-1-1c0-0.6,0.4-1,1-1h14c0.6,0,1,0.4,1,1C22,16.6,21.6,17,21,17z"/>
	<path class="st1" d="M21,7H7C6.4,7,6,6.6,6,6s0.4-1,1-1h14c0.6,0,1,0.4,1,1S21.6,7,21,7z"/>
	<path class="st1" d="M21,27H7c-0.6,0-1-0.4-1-1s0.4-1,1-1h14c0.6,0,1,0.4,1,1S21.6,27,21,27z"/>
	<circle class="st2" cx="25" cy="6" r="1"/>
	<circle class="st2" cx="25" cy="16" r="1"/>
	<circle class="st2" cx="25" cy="26" r="1"/>
</g>
</svg>
