<?xml version="1.0" encoding="utf-8"?>
<!-- Generator: Adobe Illustrator 27.0.0, SVG Export Plug-In . SVG Version: 6.00 Build 0)  -->
<svg version="1.1" id="Layer_1" xmlns="http://www.w3.org/2000/svg" xmlns:xlink="http://www.w3.org/1999/xlink" x="0px" y="0px"
	 viewBox="0 0 24 24" style="enable-background:new 0 0 24 24;" xml:space="preserve">
<style type="text/css">
	.st0{fill:#C60F7B;}
	.st1{opacity:0.75;fill:#F90093;}
</style>
<path class="st0" d="M3.1,7.1C1.8,6.3,0.3,7.2,0.3,8.7v8.1c0,1.4,1.6,2.3,2.8,1.6l6.9-4v2.3c0,1.4,1.6,2.3,2.8,1.6l7.1-4.1
	c1.3-0.7,1.3-2.5,0-3.3l-7.1-4.1C11.6,6.3,10,7.2,10,8.7V11L3.1,7.1z"/>
<path class="st1" d="M5.9,4.2C4.7,3.4,3.1,4.3,3.1,5.8v8.1c0,1.4,1.6,2.3,2.8,1.6l6.9-4v2.3c0,1.4,1.6,2.3,2.8,1.6l7.1-4.1
	c1.3-0.7,1.3-2.5,0-3.3l-7.1-4.1c-1.2-0.7-2.8,0.2-2.8,1.6v2.3L5.9,4.2z"/>
</svg>
