<?xml version="1.0" encoding="utf-8"?>
<!-- Generator: Adobe Illustrator 27.0.0, SVG Export Plug-In . SVG Version: 6.00 Build 0)  -->
<svg version="1.1" id="Layer_1" xmlns="http://www.w3.org/2000/svg" xmlns:xlink="http://www.w3.org/1999/xlink" x="0px" y="0px"
	 viewBox="0 0 24 24" style="enable-background:new 0 0 24 24;" xml:space="preserve">
<style type="text/css">
	.st0{fill:#C60F7B;}
	.st1{opacity:0.75;fill:#F90093;}
</style>
<path class="st0" d="M16.9,3.6c-1,0-1.9,0.8-1.9,1.9v15.8c0,1,0.8,1.9,1.9,1.9h0.8c1,0,1.9-0.8,1.9-1.9V5.4c0-1-0.8-1.9-1.9-1.9
	H16.9z M8.3,9.9c0-1,0.8-1.9,1.9-1.9h0.8c1,0,1.9,0.8,1.9,1.9v11.2c0,1-0.8,1.9-1.9,1.9h-0.8c-1,0-1.9-0.8-1.9-1.9l0,0V9.9z
	 M1.5,14.4c0-1,0.8-1.9,1.9-1.9h0.8c1,0,1.9,0.8,1.9,1.9v6.8c0,1-0.8,1.9-1.9,1.9H3.4c-1,0-1.9-0.8-1.9-1.9l0,0V14.4z"/>
<path class="st1" d="M18.4,2c-1,0-1.9,0.8-1.9,1.9v15.7c0,1,0.8,1.9,1.9,1.9h0.8c1,0,1.9-0.8,1.9-1.9V3.8c0-1-0.8-1.9-1.9-1.9H18.4z
	 M9.8,8.3c0-1,0.8-1.9,1.9-1.9h0.8c1,0,1.9,0.8,1.9,1.9v11.2c0,1-0.8,1.9-1.9,1.9h-0.8c-1,0-1.9-0.8-1.9-1.9l0,0V8.3z M3,12.8
	c0-1,0.8-1.9,1.9-1.9h0.8c1,0,1.9,0.8,1.9,1.9v6.7c0,1-0.8,1.9-1.9,1.9H4.9c-1,0-1.9-0.8-1.9-1.9l0,0V12.8z"/>
</svg>
